<svg xmlns="http://www.w3.org/2000/svg" width="198.666" height="55.163" viewBox="0 0 198.666 55.163">
  <g id="logo" transform="translate(0 0)">
    <path id="路径_1731" data-name="路径 1731" d="M252.277-1427.525h20.874v7.006H254.175a20.119,20.119,0,0,0,2.919,5.693c6.741,10.072,19.893,13.283,29.924,6.068,8.554-6.151,11.931-17.729,10.656-27.818H275.049v-7.3h20.728c-.384-2.232-1.921-4.434-3.163-6.277-5.93-8.8-17.792-12.845-27.345-7.382C254.759-1451.525,250.818-1438.989,252.277-1427.525Z" transform="translate(-251.984 1460.014)" fill="#fff"/>
    <g id="组_1573" data-name="组 1573" transform="translate(57.805 37.717)">
      <rect id="矩形_612" data-name="矩形 612" width="3.065" height="7.444" transform="translate(40.58 3.237)" fill="#fff"/>
      <rect id="矩形_613" data-name="矩形 613" width="3.065" height="2.044" transform="translate(32.405 0.318)" fill="#fff"/>
      <rect id="矩形_614" data-name="矩形 614" width="3.065" height="2.044" transform="translate(40.58 0.318)" fill="#fff"/>
      <path id="路径_1732" data-name="路径 1732" d="M957.15-1176.473c-.665.284-.931,1.109-1.8.969-1.718-.276-1.664-2.949-.292-3.616,1-.482,1.274.568,2.074.755a6.662,6.662,0,0,0,2.6-.386c-1.2-4.083-8.577-3.151-8.758,1.168-.193,4.888,7.625,5.755,8.9,1.314A5.842,5.842,0,0,0,957.15-1176.473Z" transform="translate(-906.743 1184.324)" fill="#fff"/>
      <path id="路径_1733" data-name="路径 1733" d="M654.853-1196.781a2.389,2.389,0,0,0,.568-3.884c-2.178-1.892-6.6-.854-7.283,1.987l2.919.438c.917-2.688,3.5.451.438.73l-.146,2.044c.584,0,1.22-.178,1.736.222a1.37,1.37,0,0,1-.423,2.406c-1.065.3-1.115-.876-1.812-1.225-.72-.339-2.075.17-2.858.2.72,3.033,5.157,4.266,7.577,2.258A3,3,0,0,0,654.853-1196.781Z" transform="translate(-647.992 1201.624)" fill="#fff"/>
      <path id="路径_1734" data-name="路径 1734" d="M715.393-1197.672c-.479-.095-2.122-.381-1.622-1.223a1.014,1.014,0,0,1,1.184-.332c.584.191.809.841,1.352,1.08.838.38,2.124-.05,3.028-.058a3.964,3.964,0,0,0-1.316-2.387c-1.936-1.393-6.927-1.115-7.531,1.657-.495,2.264,1.4,3.316,3.3,3.812.763.2,1.958.326,2.323,1.157.334.762-.664,1.307-1.3,1.223a2.106,2.106,0,0,1-1.606-1.667l-3.211.146c.387,4.733,9.145,5.226,9.608.438C719.844-1196.35,717.4-1197.209,715.393-1197.672Z" transform="translate(-700.942 1201.442)" fill="#fff"/>
      <path id="路径_1735" data-name="路径 1735" d="M1016.034-1180.653a3.916,3.916,0,0,0-2.425,6.209,5.075,5.075,0,0,0,4.906,1.391,3.949,3.949,0,0,0,2.288-6.349A5.115,5.115,0,0,0,1016.034-1180.653Zm1.459,5.674c-1.946.394-2.229-3.386-.437-3.746C1018.954-1179.109,1019.234-1175.32,1017.493-1174.98Z" transform="translate(-959.544 1183.813)" fill="#fff"/>
      <path id="路径_1736" data-name="路径 1736" d="M807.393-1197.672c-.479-.095-2.122-.381-1.622-1.223a1.014,1.014,0,0,1,1.183-.332c.584.191.809.841,1.352,1.08.838.38,2.124-.05,3.028-.058a3.964,3.964,0,0,0-1.316-2.387c-1.936-1.393-6.928-1.115-7.531,1.657-.495,2.264,1.4,3.316,3.3,3.812.762.2,1.958.326,2.323,1.157.334.762-.664,1.307-1.3,1.223a2.105,2.105,0,0,1-1.606-1.667l-3.211.146c.387,4.733,9.145,5.226,9.608.438C811.844-1196.35,809.4-1197.209,807.393-1197.672Z" transform="translate(-779.513 1201.442)" fill="#fff"/>
      <rect id="矩形_615" data-name="矩形 615" width="3.065" height="7.444" transform="translate(32.405 3.237)" fill="#fff"/>
      <rect id="矩形_616" data-name="矩形 616" width="3.065" height="10.364" transform="translate(36.493 0.318)" fill="#fff"/>
      <path id="路径_1737" data-name="路径 1737" d="M1348.371-1196.6a3.875,3.875,0,0,0-1.46.8v-3.649h-2.92v10.364h2.92a15.477,15.477,0,0,1,.138-4.233c.15-.5.557-1.156,1.173-1.022,1.453.3.879,4.18.879,5.255h2.919C1352.02-1191.906,1353.019-1197.7,1348.371-1196.6Z" transform="translate(-1242.397 1199.765)" fill="#fff"/>
      <path id="路径_1738" data-name="路径 1738" d="M1288.15-1176.473c-.665.285-.931,1.108-1.8.969-1.718-.276-1.664-2.95-.292-3.616,1-.482,1.274.568,2.074.755a6.662,6.662,0,0,0,2.6-.386c-1.2-4.084-8.577-3.151-8.758,1.168-.192,4.888,7.625,5.755,8.9,1.314A5.837,5.837,0,0,0,1288.15-1176.473Z" transform="translate(-1189.426 1184.324)" fill="#fff"/>
      <rect id="矩形_617" data-name="矩形 617" width="3.357" height="10.364" transform="translate(115.024 0.318)" fill="#fff"/>
      <path id="路径_1739" data-name="路径 1739" d="M1470.765-1179.535v-.876h-2.773v7.444h2.919a15.492,15.492,0,0,1,.138-4.233c.15-.5.557-1.156,1.173-1.022,1.453.3.879,4.18.879,5.255h2.919c0-1.819.472-4.415-.166-6.13C1475.038-1181.287,1472.154-1180.7,1470.765-1179.535Z" transform="translate(-1348.296 1183.648)" fill="#fff"/>
      <path id="路径_1740" data-name="路径 1740" d="M1532.15-1176.473c-.665.285-.931,1.108-1.8.969-1.718-.276-1.664-2.95-.292-3.616,1-.482,1.274.568,2.074.755a6.661,6.661,0,0,0,2.6-.386c-1.2-4.084-8.577-3.151-8.758,1.168-.192,4.888,7.625,5.755,8.9,1.314A5.837,5.837,0,0,0,1532.15-1176.473Z" transform="translate(-1397.81 1184.324)" fill="#fff"/>
      <path id="路径_1741" data-name="路径 1741" d="M1170.918-1199.447h-9.926v2.335h3.211v8.028h3.357v-8.028h3.357Z" transform="translate(-1086.109 1199.765)" fill="#fff"/>
      <path id="路径_1742" data-name="路径 1742" d="M1079.765-1179.535v-.876h-2.773v7.444h2.919a15.487,15.487,0,0,1,.138-4.233c.15-.5.557-1.156,1.173-1.022,1.453.3.879,4.18.879,5.255h2.919c0-1.819.472-4.415-.166-6.13C1084.038-1181.287,1081.153-1180.7,1079.765-1179.535Z" transform="translate(-1014.371 1183.648)" fill="#fff"/>
      <path id="路径_1743" data-name="路径 1743" d="M1227.5-1180.426c-2.281-1.827-6.827-.928-7.487,2.112-1.12,5.074,6.607,6.747,8.66,2.627a9.769,9.769,0,0,0-2.627-.272c-1.385.156-2.3.977-3.065-.75h5.839A4.4,4.4,0,0,0,1227.5-1180.426Zm-4.519,2.258a1.429,1.429,0,0,1,2.773,0Z" transform="translate(-1136.424 1184.324)" fill="#fff"/>
    </g>
    <path id="路径_1744" data-name="路径 1744" d="M1590.992-1148.447v2.919h3.211v-2.919Z" transform="translate(-1395.537 1193.927)" fill="#fff"/>
    <g id="组_1574" data-name="组 1574" transform="translate(57.245 8.114)">
      <path id="路径_1745" data-name="路径 1745" d="M668.465-1402.522v3.113h-18.5v4.965c0,4.3-.36,10.651-2.676,14.587a14.512,14.512,0,0,0-3.139-1.827c2.109-3.6,2.264-8.927,2.264-12.76v-8.078h9.364c-.1-.386-.232-.8-.335-1.132l3.91-.772c.206.566.437,1.261.643,1.9Zm-5.171,18.445c1.9.669,3.807,1.389,5.068,1.9l-1.7,2.573c-1.621-.746-4.322-1.9-6.766-2.778l1.029-1.7h-4.219l1.852,1.7c-2.264.952-5.3,2.084-7.409,2.8a19.343,19.343,0,0,0-1.981-2.521c1.569-.489,3.627-1.26,5.3-1.981h-3.55v-7.46h16.13v7.46Zm-12.966-9.9h17.957v2.007H650.328Zm6.534-5.222v.669h3.91v-.669h3.756v.669h3.113v1.981h-3.113v2.135H653.312v-2.135h-2.83v-1.981h2.83v-.669Zm-2.6,10.419h3.01v-.695h-3.01Zm0,2.65h3.01v-.721h-3.01Zm2.6-10.419v.695h3.91v-.695Zm6.663,7.074h-2.778v.695h2.778Zm0,2.624h-2.778v.721h2.778Z" transform="translate(-644.154 1404.426)" fill="#fff"/>
      <path id="路径_1746" data-name="路径 1746" d="M918.164-1400.952a43.263,43.263,0,0,1-2.444,4.888v18.24h-3.55v-13.12a21.183,21.183,0,0,1-1.9,2.058,27.692,27.692,0,0,0-1.929-3.936,25.57,25.57,0,0,0,6.354-9.313Zm9.75,19.423c1.261,0,1.466-1,1.7-5.222a10.1,10.1,0,0,0,3.293,1.544c-.386,5.068-1.286,6.972-4.657,6.972h-3.987c-3.525,0-4.5-1.184-4.5-5.171v-18.317h3.6v6.329h8.9v3.576h-8.9v8.464c0,1.595.129,1.827,1.338,1.827Z" transform="translate(-869.774 1402.469)" fill="#fff"/>
      <path id="路径_1747" data-name="路径 1747" d="M1181.013-1385.934a23.781,23.781,0,0,0-1.08-2.135v9.518h-3.627v-7.949a20.6,20.6,0,0,1-2.264,4.065,20.039,20.039,0,0,0-1.7-3.6,23.466,23.466,0,0,0,3.473-6.252h-3.164v-3.473h3.653v-2.392c-.849.129-1.7.257-2.521.334a12.289,12.289,0,0,0-.977-2.881,39.617,39.617,0,0,0,8.361-2.135l2.032,3.061a30.271,30.271,0,0,1-3.267.926v3.087h3.164v3.473h-3.164v.077c.695.592,2.727,2.8,3.216,3.344Zm13.275.978v6.38h-3.679v-5.711l-7.435,1.364-.592-3.576,8.026-1.441v-15.075h3.679v14.432l2.315-.412.566,3.524Zm-8.773-9.853a24.129,24.129,0,0,1,4.039,3.807l-2.573,2.393a23.316,23.316,0,0,0-3.859-4.065Zm2.187-.643a20.757,20.757,0,0,0-3.679-4.039l2.444-2.084a22.587,22.587,0,0,1,3.859,3.807Z" transform="translate(-1095.244 1403.222)" fill="#fff"/>
      <path id="路径_1748" data-name="路径 1748" d="M1447.3-1388.588c-.849.232-1.7.437-2.573.669v5.505c0,1.7-.283,2.6-1.26,3.164a8.49,8.49,0,0,1-4.168.669,14.243,14.243,0,0,0-1.029-3.4c.9.026,1.955.026,2.29.026.386,0,.489-.129.489-.489v-4.579l-2.187.514-.926-3.576c.9-.154,1.955-.36,3.113-.618v-3.962h-2.778v-3.447h2.778v-4.734h3.679v4.734h2.367v3.447h-2.367v3.139l2.135-.489Zm14.638-3.885a18.942,18.942,0,0,1-4.579,8.644,18.506,18.506,0,0,0,5.583,2.238,15.254,15.254,0,0,0-2.367,3.216,19.3,19.3,0,0,1-6.2-2.984,23.472,23.472,0,0,1-6.458,2.881,13.576,13.576,0,0,0-2.006-3.37,18.94,18.94,0,0,0,5.685-2.161,21.229,21.229,0,0,1-3.319-5.582l1.183-.334h-1.647v-3.37h4.836v-2.65H1447.4v-3.422h5.248v-3.473h3.7v3.473h5.557v3.422h-5.557v2.65h2.547l.618-.129Zm-10.033,2.547a15.112,15.112,0,0,0,2.573,3.781,13.261,13.261,0,0,0,2.727-3.781Z" transform="translate(-1322.069 1403.072)" fill="#fff"/>
    </g>
  </g>
</svg>
