<svg xmlns="http://www.w3.org/2000/svg" width="171.606" height="171.606" viewBox="0 0 171.606 171.606">
  <g id="company-svgrepo-com_1_" data-name="company-svgrepo-com (1)" transform="translate(-4 -4)">
    <path id="路径_1566" data-name="路径 1566" d="M70.3,4H15.7A11.492,11.492,0,0,0,4,15.7V171.705a4.194,4.194,0,0,0,3.9,3.9H23.5a3.685,3.685,0,0,0,3.9-3.9V148.3a3.685,3.685,0,0,1,3.9-3.9H54.7a3.685,3.685,0,0,1,3.9,3.9v23.4a3.685,3.685,0,0,0,3.9,3.9H74.2a7.823,7.823,0,0,0,7.8-7.8V15.7A11.492,11.492,0,0,0,70.3,4ZM35.2,126.854a1.842,1.842,0,0,1-1.95,1.95h-11.7a1.842,1.842,0,0,1-1.95-1.95v-19.5a1.842,1.842,0,0,1,1.95-1.95h11.7a1.842,1.842,0,0,1,1.95,1.95Zm0-39a1.842,1.842,0,0,1-1.95,1.95h-11.7a1.842,1.842,0,0,1-1.95-1.95v-19.5a1.842,1.842,0,0,1,1.95-1.95h11.7a1.842,1.842,0,0,1,1.95,1.95Zm0-39a1.842,1.842,0,0,1-1.95,1.95h-11.7a1.842,1.842,0,0,1-1.95-1.95v-19.5a1.842,1.842,0,0,1,1.95-1.95h11.7a1.842,1.842,0,0,1,1.95,1.95Zm31.2,78a1.842,1.842,0,0,1-1.95,1.95h-11.7a1.842,1.842,0,0,1-1.95-1.95v-19.5a1.842,1.842,0,0,1,1.95-1.95h11.7a1.842,1.842,0,0,1,1.95,1.95Zm0-39a1.842,1.842,0,0,1-1.95,1.95h-11.7a1.842,1.842,0,0,1-1.95-1.95v-19.5a1.842,1.842,0,0,1,1.95-1.95h11.7a1.842,1.842,0,0,1,1.95,1.95Zm0-39a1.842,1.842,0,0,1-1.95,1.95h-11.7a1.842,1.842,0,0,1-1.95-1.95v-19.5a1.842,1.842,0,0,1,1.95-1.95h11.7a1.842,1.842,0,0,1,1.95,1.95Z" fill="#00b0f0"/>
    <path id="路径_1567" data-name="路径 1567" d="M94.3,14H39.7A11.492,11.492,0,0,0,28,25.7v117a4.194,4.194,0,0,0,3.9,3.9H47.5a3.685,3.685,0,0,0,3.9-3.9V119.3a3.685,3.685,0,0,1,3.9-3.9H78.7a3.685,3.685,0,0,1,3.9,3.9v23.4a3.685,3.685,0,0,0,3.9,3.9H98.2a7.823,7.823,0,0,0,7.8-7.8V25.7A11.492,11.492,0,0,0,94.3,14ZM59.2,97.853a1.842,1.842,0,0,1-1.95,1.95h-11.7a1.842,1.842,0,0,1-1.95-1.95v-19.5a1.842,1.842,0,0,1,1.95-1.95h11.7a1.842,1.842,0,0,1,1.95,1.95Zm0-39a1.842,1.842,0,0,1-1.95,1.95h-11.7a1.842,1.842,0,0,1-1.95-1.95v-19.5a1.842,1.842,0,0,1,1.95-1.95h11.7a1.842,1.842,0,0,1,1.95,1.95Zm31.2,39a1.842,1.842,0,0,1-1.95,1.95h-11.7a1.842,1.842,0,0,1-1.95-1.95v-19.5a1.842,1.842,0,0,1,1.95-1.95h11.7a1.842,1.842,0,0,1,1.95,1.95Zm0-39a1.842,1.842,0,0,1-1.95,1.95h-11.7a1.842,1.842,0,0,1-1.95-1.95v-19.5a1.842,1.842,0,0,1,1.95-1.95h11.7a1.842,1.842,0,0,1,1.95,1.95Z" transform="translate(69.603 29.001)" fill="#00b0f0"/>
  </g>
</svg>
