<svg xmlns="http://www.w3.org/2000/svg" width="44.671" height="32.257" viewBox="0 0 44.671 32.257">
  <g id="XMLID_19_" transform="translate(1 1)">
    <path id="XMLID_20_" d="M25.892,13.339,13.366.813A2.615,2.615,0,0,0,11.577,0,2.613,2.613,0,0,0,9.787.813L8.323,2.278A2.329,2.329,0,0,0,7.51,4.067a2.611,2.611,0,0,0,.813,1.789l5.693,5.694H-13.851a2.088,2.088,0,0,0-1.626.651,2.444,2.444,0,0,0-.651,1.789v2.44a2.445,2.445,0,0,0,.651,1.789,2.089,2.089,0,0,0,1.626.651H14.017L8.323,24.564a2.375,2.375,0,0,0,0,3.579l1.464,1.464a2.447,2.447,0,0,0,1.789.651,2.447,2.447,0,0,0,1.79-.651L25.892,17.081a2.444,2.444,0,0,0,.65-1.789,2.75,2.75,0,0,0-.65-1.952Zm0,0" transform="translate(16.129)" fill="#0070c0" stroke="#0070c0" stroke-width="2" stroke-dasharray="0 400"/>
  </g>
</svg>
