<svg id="icon_fax" data-name="icon/fax" xmlns="http://www.w3.org/2000/svg" width="44.978" height="44.978" viewBox="0 0 44.978 44.978">
  <g id="组_142" data-name="组 142">
    <path id="路径_207" data-name="路径 207" d="M22.489,0A22.489,22.489,0,1,1,0,22.489,22.489,22.489,0,0,1,22.489,0Z" fill="#00b0f0"/>
    <g id="组_45" data-name="组 45" transform="translate(10.296 11.758)">
      <path id="路径_206" data-name="路径 206" d="M23.573,3.71H20.562V1a1,1,0,0,0-1-1H5.015a1,1,0,0,0-1,1V3.715H1a1,1,0,0,0-1,1v9.829a1,1,0,0,0,1,1H4.016v5.286a1.009,1.009,0,0,0,.733,1.044,1.606,1.606,0,0,0,.437.035H19.4a1.606,1.606,0,0,0,.437-.035,1.01,1.01,0,0,0,.733-1.049V15.552h3.007a1,1,0,0,0,1-1V4.714a1.011,1.011,0,0,0-1.009-1ZM2.51,7.249a.878.878,0,1,1,.878-.878.876.876,0,0,1-.878.878ZM19.563,20.918H5.015V12.992H19.563v7.926Zm0-17.208H5.015v-1.7a1,1,0,0,1,1-1h12.54a1,1,0,0,1,1,1v1.7Zm0,0" fill="#fff"/>
    </g>
  </g>
</svg>
