<svg xmlns="http://www.w3.org/2000/svg" width="129.98" height="36.091" viewBox="0 0 129.98 36.091">
  <g id="logo" transform="translate(-251.984 1460.013)">
    <path id="路径_1731" data-name="路径 1731" d="M252.176-1438.758h13.657v4.584H253.418a13.164,13.164,0,0,0,1.91,3.725c4.41,6.59,13.015,8.691,19.578,3.97,5.6-4.025,7.806-11.6,6.972-18.2h-14.8v-4.775h13.561a11.562,11.562,0,0,0-2.07-4.106c-3.88-5.755-11.641-8.4-17.89-4.83C253.8-1454.459,251.221-1446.258,252.176-1438.758Z" transform="translate(0 0)" fill="#0430c4"/>
    <g id="组_1573" data-name="组 1573" transform="translate(289.804 -1435.336)">
      <rect id="矩形_612" data-name="矩形 612" width="2.006" height="4.871" transform="translate(26.55 2.118)" fill="#0430c4"/>
      <rect id="矩形_613" data-name="矩形 613" width="2.006" height="1.337" transform="translate(21.202 0.208)" fill="#0430c4"/>
      <rect id="矩形_614" data-name="矩形 614" width="2.006" height="1.337" transform="translate(26.55 0.208)" fill="#0430c4"/>
      <path id="路径_1732" data-name="路径 1732" d="M955.012-1178.165c-.435.186-.609.725-1.177.634-1.124-.181-1.089-1.93-.191-2.366.652-.315.834.371,1.357.494a4.36,4.36,0,0,0,1.7-.252c-.786-2.672-5.612-2.061-5.73.764-.126,3.2,4.989,3.765,5.826.86A3.821,3.821,0,0,0,955.012-1178.165Z" transform="translate(-922.033 1183.301)" fill="#0430c4"/>
      <path id="路径_1733" data-name="路径 1733" d="M652.481-1198.455a1.563,1.563,0,0,0,.372-2.541c-1.425-1.238-4.32-.559-4.765,1.3l1.91.286c.6-1.759,2.292.3.287.478l-.1,1.337c.382,0,.8-.116,1.136.145a.9.9,0,0,1-.276,1.574c-.7.2-.73-.573-1.186-.8-.471-.222-1.358.111-1.87.133.471,1.984,3.374,2.791,4.957,1.477A1.964,1.964,0,0,0,652.481-1198.455Z" transform="translate(-647.992 1201.624)" fill="#0430c4"/>
      <path id="路径_1734" data-name="路径 1734" d="M713.526-1198.965c-.314-.062-1.388-.25-1.061-.8a.664.664,0,0,1,.774-.217c.382.125.53.55.884.706.548.249,1.39-.033,1.981-.038a2.592,2.592,0,0,0-.861-1.562c-1.267-.912-4.532-.73-4.927,1.084-.324,1.481.918,2.17,2.159,2.494.5.132,1.281.214,1.52.757.219.5-.435.855-.851.8a1.378,1.378,0,0,1-1.051-1.091l-2.1.1c.253,3.1,5.983,3.419,6.286.286C716.438-1198.1,714.84-1198.662,713.526-1198.965Z" transform="translate(-704.071 1201.432)" fill="#0430c4"/>
      <path id="路径_1735" data-name="路径 1735" d="M1014.914-1180.693a2.562,2.562,0,0,0-1.586,4.062,3.32,3.32,0,0,0,3.21.91,2.584,2.584,0,0,0,1.5-4.153A3.346,3.346,0,0,0,1014.914-1180.693Zm.955,3.712c-1.273.258-1.458-2.215-.286-2.451C1016.824-1179.683,1017.007-1177.2,1015.869-1176.981Z" transform="translate(-977.954 1182.76)" fill="#0430c4"/>
      <path id="路径_1736" data-name="路径 1736" d="M805.526-1198.965c-.314-.062-1.388-.25-1.061-.8a.664.664,0,0,1,.775-.217c.382.125.53.55.884.706.548.249,1.39-.033,1.981-.038a2.592,2.592,0,0,0-.861-1.562c-1.267-.912-4.532-.73-4.927,1.084-.324,1.481.918,2.17,2.159,2.494.5.132,1.281.214,1.52.757.219.5-.435.855-.851.8a1.377,1.377,0,0,1-1.05-1.091l-2.1.1c.253,3.1,5.983,3.419,6.286.286C808.438-1198.1,806.84-1198.662,805.526-1198.965Z" transform="translate(-787.285 1201.432)" fill="#0430c4"/>
      <rect id="矩形_615" data-name="矩形 615" width="2.006" height="4.871" transform="translate(21.202 2.118)" fill="#0430c4"/>
      <rect id="矩形_616" data-name="矩形 616" width="2.006" height="6.781" transform="translate(23.876 0.208)" fill="#0430c4"/>
      <path id="路径_1737" data-name="路径 1737" d="M1346.857-1197.582a2.537,2.537,0,0,0-.955.522v-2.387h-1.91v6.781h1.91a10.121,10.121,0,0,1,.09-2.769c.1-.325.364-.756.767-.669.95.2.575,2.735.575,3.438h1.91C1349.245-1194.513,1349.9-1198.3,1346.857-1197.582Z" transform="translate(-1277.522 1199.655)" fill="#0430c4"/>
      <path id="路径_1738" data-name="路径 1738" d="M1286.012-1178.165c-.435.186-.609.725-1.177.634-1.124-.181-1.089-1.93-.191-2.366.652-.315.834.371,1.357.494a4.357,4.357,0,0,0,1.7-.252c-.786-2.672-5.612-2.061-5.73.764-.126,3.2,4.989,3.765,5.826.859A3.82,3.82,0,0,0,1286.012-1178.165Z" transform="translate(-1221.421 1183.301)" fill="#0430c4"/>
      <rect id="矩形_617" data-name="矩形 617" width="2.197" height="6.781" transform="translate(75.256 0.208)" fill="#0430c4"/>
      <path id="路径_1739" data-name="路径 1739" d="M1469.806-1179.895v-.573h-1.815v4.871h1.91a10.126,10.126,0,0,1,.09-2.77c.1-.325.365-.756.768-.668.95.2.575,2.735.575,3.438h1.91c0-1.19.309-2.889-.108-4.011C1472.6-1181.041,1470.714-1180.659,1469.806-1179.895Z" transform="translate(-1389.68 1182.586)" fill="#0430c4"/>
      <path id="路径_1740" data-name="路径 1740" d="M1530.012-1178.165c-.435.186-.609.725-1.177.634-1.124-.181-1.089-1.93-.191-2.366.652-.315.834.371,1.357.494a4.357,4.357,0,0,0,1.7-.252c-.786-2.672-5.612-2.061-5.73.764-.126,3.2,4.989,3.765,5.826.859A3.82,3.82,0,0,0,1530.012-1178.165Z" transform="translate(-1442.119 1183.301)" fill="#0430c4"/>
      <path id="路径_1741" data-name="路径 1741" d="M1167.486-1199.447h-6.494v1.528h2.1v5.253h2.2v-5.253h2.2Z" transform="translate(-1111.999 1199.655)" fill="#0430c4"/>
      <path id="路径_1742" data-name="路径 1742" d="M1078.807-1179.895v-.573h-1.815v4.871h1.91a10.131,10.131,0,0,1,.09-2.77c.1-.325.365-.756.768-.668.95.2.575,2.735.575,3.438h1.91c0-1.19.309-2.889-.108-4.011C1081.6-1181.041,1079.715-1180.659,1078.807-1179.895Z" transform="translate(-1036.021 1182.586)" fill="#0430c4"/>
      <path id="路径_1743" data-name="路径 1743" d="M1224.877-1180.751c-1.493-1.2-4.467-.607-4.9,1.382-.733,3.32,4.323,4.414,5.666,1.719a6.391,6.391,0,0,0-1.719-.178c-.906.1-1.5.639-2.006-.49h3.82A2.881,2.881,0,0,0,1224.877-1180.751Zm-2.957,1.477a.935.935,0,0,1,1.815,0Z" transform="translate(-1165.287 1183.302)" fill="#0430c4"/>
    </g>
    <path id="路径_1744" data-name="路径 1744" d="M1590.992-1148.447v1.91h2.1v-1.91Z" transform="translate(-1211.129 -281.811)" fill="#0430c4"/>
    <g id="组_1574" data-name="组 1574" transform="translate(289.437 -1454.704)">
      <path id="路径_1745" data-name="路径 1745" d="M660.059-1403.18v2.037h-12.1v3.248c0,2.811-.236,6.968-1.751,9.543a9.5,9.5,0,0,0-2.053-1.2c1.38-2.356,1.481-5.84,1.481-8.348v-5.285h6.127c-.067-.253-.151-.522-.219-.741l2.558-.5c.135.37.286.825.421,1.245Zm-3.383,12.068c1.246.438,2.491.909,3.316,1.245l-1.111,1.683c-1.06-.488-2.828-1.245-4.427-1.818l.673-1.111h-2.76l1.212,1.111c-1.481.623-3.467,1.364-4.847,1.835a12.649,12.649,0,0,0-1.3-1.649c1.027-.32,2.373-.825,3.467-1.3H648.58v-4.881h10.553v4.881Zm-8.483-6.48h11.748v1.313H648.193Zm4.275-3.417v.438h2.558v-.438h2.457v.438h2.037v1.3h-2.037v1.4h-7.338v-1.4h-1.851v-1.3h1.851v-.438Zm-1.7,6.817h1.969v-.454h-1.969Zm0,1.734h1.969v-.471h-1.969Zm1.7-6.817v.454h2.558v-.454Zm4.359,4.629H655.01v.454h1.818Zm0,1.717H655.01v.471h1.818Z" transform="translate(-644.154 1404.426)" fill="#0430c4"/>
      <path id="路径_1746" data-name="路径 1746" d="M914.767-1401.361a28.324,28.324,0,0,1-1.6,3.2v11.933h-2.323v-8.584a13.858,13.858,0,0,1-1.246,1.346,18.129,18.129,0,0,0-1.262-2.575,16.727,16.727,0,0,0,4.157-6.093Zm6.379,12.708c.825,0,.959-.656,1.111-3.417a6.607,6.607,0,0,0,2.154,1.01c-.253,3.316-.842,4.561-3.047,4.561h-2.609c-2.306,0-2.945-.774-2.945-3.383v-11.984h2.356v4.141h5.823v2.339h-5.823v5.538c0,1.043.084,1.195.875,1.195Z" transform="translate(-883.107 1402.354)" fill="#0430c4"/>
      <path id="路径_1747" data-name="路径 1747" d="M1178.016-1391.84c-.168-.387-.421-.892-.707-1.4v6.228h-2.373v-5.2a13.472,13.472,0,0,1-1.481,2.659,13.108,13.108,0,0,0-1.111-2.356,15.355,15.355,0,0,0,2.272-4.09h-2.07v-2.272h2.39v-1.565c-.555.084-1.111.168-1.649.219a8.048,8.048,0,0,0-.64-1.885,25.914,25.914,0,0,0,5.47-1.4l1.33,2a19.8,19.8,0,0,1-2.138.606v2.02h2.07V-1396h-2.07v.05c.455.387,1.784,1.835,2.1,2.188Zm8.685.64v4.174h-2.407v-3.736l-4.864.892-.387-2.34,5.251-.943v-9.863h2.407v9.442l1.515-.269.37,2.306Zm-5.74-6.446a15.793,15.793,0,0,1,2.643,2.491l-1.683,1.565a15.27,15.27,0,0,0-2.525-2.659Zm1.431-.421a13.586,13.586,0,0,0-2.407-2.643l1.6-1.363a14.77,14.77,0,0,1,2.525,2.491Z" transform="translate(-1121.9 1403.151)" fill="#0430c4"/>
      <path id="路径_1748" data-name="路径 1748" d="M1444.064-1393.516c-.556.151-1.111.286-1.683.438v3.6c0,1.111-.185,1.7-.825,2.07a5.557,5.557,0,0,1-2.727.438,9.332,9.332,0,0,0-.673-2.222c.589.017,1.279.017,1.5.017.253,0,.32-.084.32-.32v-3l-1.431.336-.606-2.339c.589-.1,1.279-.236,2.037-.4v-2.592h-1.818v-2.255h1.818v-3.1h2.407v3.1h1.548v2.255h-1.548v2.053l1.4-.32Zm9.577-2.541a12.394,12.394,0,0,1-3,5.655,12.11,12.11,0,0,0,3.652,1.464,9.979,9.979,0,0,0-1.549,2.1,12.63,12.63,0,0,1-4.056-1.953,15.355,15.355,0,0,1-4.225,1.885,8.887,8.887,0,0,0-1.313-2.2,12.4,12.4,0,0,0,3.72-1.414,13.892,13.892,0,0,1-2.171-3.652l.774-.219H1444.4v-2.2h3.164v-1.733h-3.433v-2.239h3.433v-2.272h2.424v2.272h3.635v2.239h-3.635v1.733h1.666l.4-.084Zm-6.564,1.666a9.892,9.892,0,0,0,1.683,2.474,8.675,8.675,0,0,0,1.784-2.474Z" transform="translate(-1362.129 1402.992)" fill="#0430c4"/>
    </g>
  </g>
</svg>
