<svg id="youtube" xmlns="http://www.w3.org/2000/svg" width="45" height="45" viewBox="0 0 45 45">
  <ellipse id="椭圆_10" data-name="椭圆 10" cx="19.054" cy="17.784" rx="19.054" ry="17.784" transform="translate(6.385 4.716)" fill="#fff"/>
  <path id="路径_389" data-name="路径 389" d="M224.113,219.783l10.2-5.872-10.2-5.872Z" transform="translate(-205.187 -191.411)" fill="#00b0f0"/>
  <path id="路径_390" data-name="路径 390" d="M22.5,0A22.5,22.5,0,1,0,45,22.5,22.5,22.5,0,0,0,22.5,0ZM36.559,22.523a37.136,37.136,0,0,1-.579,6.763A3.523,3.523,0,0,1,33.5,31.765c-2.2.579-11,.579-11,.579s-8.778,0-11-.6A3.523,3.523,0,0,1,9.02,29.263,36.971,36.971,0,0,1,8.441,22.5a37.11,37.11,0,0,1,.579-6.763,3.6,3.6,0,0,1,2.478-2.5c2.2-.579,11-.579,11-.579s8.8,0,11,.6a3.523,3.523,0,0,1,2.478,2.478A35.237,35.237,0,0,1,36.559,22.523Z" transform="translate(0 0)" fill="#00b0f0"/>
</svg>
