<svg id="arrow-right" xmlns="http://www.w3.org/2000/svg" width="101.379" height="15.753" viewBox="0 0 101.379 15.753">
  <path id="路径_792" data-name="路径 792" d="M31.171,10.454a1.125,1.125,0,0,0-1.593,0l-6.75,6.75a1.125,1.125,0,0,0,0,1.593l6.75,6.75a1.126,1.126,0,1,0,1.593-1.593L25.216,18l5.956-5.954a1.125,1.125,0,0,0,0-1.593Z" transform="translate(-22.497 -10.123)" fill="#284b62" fill-rule="evenodd"/>
  <path id="路径_793" data-name="路径 793" d="M104.751,18c0-.621-1.951-1.125-4.359-1.125H8.859c-2.407,0-4.359.5-4.359,1.125s1.951,1.125,4.359,1.125h91.534C102.8,19.125,104.751,18.621,104.751,18Z" transform="translate(-3.372 -10.123)" fill="#284b62" fill-rule="evenodd"/>
</svg>
