<svg xmlns="http://www.w3.org/2000/svg" width="28.869" height="26.046" viewBox="0 0 28.869 26.046">
  <path id="Shape" d="M19.737,24.714A14.585,14.585,0,0,0,26.6,26.023c.4,0,.822-.008,1.249-.024a1.043,1.043,0,0,0,.915-.576.943.943,0,0,0-.12-1.034,14.721,14.721,0,0,1-2.917-5.054A12.514,12.514,0,0,0,23.321,3.7,14.307,14.307,0,0,0,6.77,1.794,12.732,12.732,0,0,0,.483,16.429,13.633,13.633,0,0,0,13.73,26.023a14.226,14.226,0,0,0,6.007-1.309Zm-.455-2.027a12.022,12.022,0,0,1-14.92-3.168A10.588,10.588,0,0,1,5.689,5.082a12.094,12.094,0,0,1,15.273-.675A10.623,10.623,0,0,1,23.7,18.663a.957.957,0,0,0-.13.714,13.265,13.265,0,0,0,2.2,4.631A10.583,10.583,0,0,1,20.4,22.744a1.089,1.089,0,0,0-.607-.181,1.111,1.111,0,0,0-.508.124Zm.08-6.005a1,1,0,1,0,0-2H9.506a1,1,0,1,0,0,2Zm0-5.338a1,1,0,1,0,0-2h-7.04a1,1,0,1,0,0,2Z" transform="translate(0.001 0.002)" fill="#fff"/>
</svg>
