<svg id="page_top" data-name="page top" xmlns="http://www.w3.org/2000/svg" width="74" height="74" viewBox="0 0 74 74">
  <path id="路径_1755" data-name="路径 1755" d="M0,0H74V74H0Z"/>
  <g id="XMLID_19_" transform="translate(19.678 53.411) rotate(-90)">
    <path id="XMLID_20_" d="M31.589,15.148,17.365.924A2.969,2.969,0,0,0,15.333,0,2.967,2.967,0,0,0,13.3.924L11.639,2.586a2.645,2.645,0,0,0-.923,2.032,2.965,2.965,0,0,0,.923,2.032L18.1,13.116H2.587a2.371,2.371,0,0,0-1.847.739A2.776,2.776,0,0,0,0,15.887v2.771A2.776,2.776,0,0,0,.74,20.69a2.372,2.372,0,0,0,1.847.739H18.1l-6.465,6.466a2.7,2.7,0,0,0,0,4.064L13.3,33.621a2.778,2.778,0,0,0,2.032.739,2.779,2.779,0,0,0,2.032-.739L31.589,19.4a2.775,2.775,0,0,0,.739-2.032,3.123,3.123,0,0,0-.739-2.217Zm0,0" fill="#fff"/>
  </g>
</svg>
