<svg id="icon_tel" data-name="icon/tel" xmlns="http://www.w3.org/2000/svg" width="44.978" height="44.978" viewBox="0 0 44.978 44.978">
  <g id="组_141" data-name="组 141">
    <path id="路径_205" data-name="路径 205" d="M22.489,0A22.489,22.489,0,1,1,0,22.489,22.489,22.489,0,0,1,22.489,0Z" fill="#00b0f0"/>
    <g id="组_43" data-name="组 43" transform="translate(10.1 10.1)">
      <path id="路径_202" data-name="路径 202" d="M19.673,54.079c-.5.51-1.031.984-1.506,1.518a2.981,2.981,0,0,1-2.549.972,10.341,10.341,0,0,1-4.055-1.186,22.024,22.024,0,0,1-7.327-5.738,20.427,20.427,0,0,1-3.58-5.952,7.573,7.573,0,0,1-.593-3.32,2.766,2.766,0,0,1,.842-1.826c.569-.545,1.1-1.1,1.66-1.648a1.575,1.575,0,0,1,2.371,0l1.34,1.34c.439.439.877.865,1.3,1.3a1.582,1.582,0,0,1,0,2.43c-.545.545-1.079,1.1-1.636,1.636a.334.334,0,0,0-.083.439,9.27,9.27,0,0,0,1.482,2.371,17,17,0,0,0,4.15,3.77c.344.213.723.368,1.079.569a.315.315,0,0,0,.451-.083c.545-.557,1.1-1.114,1.648-1.66a1.554,1.554,0,0,1,2.359,0c.889.877,1.778,1.766,2.656,2.656a1.565,1.565,0,0,1-.012,2.407Z" transform="translate(-0.045 -32.051)" fill="#fff"/>
      <path id="路径_203" data-name="路径 203" d="M94.7,46.327l.285-2.027a9.09,9.09,0,0,1,7.671,7.434l-2.015.356a7.039,7.039,0,0,0-1.956-3.77A6.96,6.96,0,0,0,94.7,46.327Z" transform="translate(-83.478 -39.048)" fill="#fff"/>
      <path id="路径_204" data-name="路径 204" d="M107.89,12.686A12.982,12.982,0,0,0,96.9,2.027L97.185,0a14.838,14.838,0,0,1,8.536,4.256,15.007,15.007,0,0,1,4.2,8.086Z" transform="translate(-85.417)" fill="#fff"/>
    </g>
  </g>
</svg>
