<svg id="LinkedIn_icon_circle" xmlns="http://www.w3.org/2000/svg" width="39.933" height="39.933" viewBox="0 0 39.933 39.933">
  <path id="路径_1752" data-name="路径 1752" d="M19.966,39.933h0A19.966,19.966,0,0,0,39.933,19.966h0A19.966,19.966,0,0,0,19.966,0h0A19.966,19.966,0,0,0,0,19.966H0A19.966,19.966,0,0,0,19.966,39.933Z" fill="#00b0f0" fill-rule="evenodd"/>
  <path id="路径_1753" data-name="路径 1753" d="M39.4,37.4H34.389v-8.54c0-2.341-.89-3.65-2.743-3.65-2.016,0-3.069,1.362-3.069,3.65V37.4H23.745V21.134h4.832v2.191a5.676,5.676,0,0,1,4.905-2.688c3.451,0,5.921,2.107,5.921,6.465ZM17.98,19a3,3,0,1,1,2.979-3A2.991,2.991,0,0,1,17.98,19Zm-2.5,18.4h5.039V21.134H15.485Z" transform="translate(-6.681 -5.79)" fill="#fff" fill-rule="evenodd"/>
</svg>
