<svg xmlns="http://www.w3.org/2000/svg" width="33.341" height="22.085" viewBox="0 0 33.341 22.085">
  <path id="eye-svgrepo-com" d="M16.671,344.245a16.633,16.633,0,0,1-14.609-9.2,16.633,16.633,0,0,1,14.609-9.2,16.633,16.633,0,0,1,14.609,9.2A16.633,16.633,0,0,1,16.671,344.245Zm16.468-9.613A18.513,18.513,0,0,0,16.671,324,18.513,18.513,0,0,0,.2,334.632l-.2.41.2.41a18.513,18.513,0,0,0,16.468,10.632,18.513,18.513,0,0,0,16.468-10.632l.2-.41Zm-16.468,4.091a3.681,3.681,0,1,1,3.681-3.681,3.685,3.685,0,0,1-3.681,3.681m0-9.2a5.521,5.521,0,1,0,5.521,5.521,5.528,5.528,0,0,0-5.521-5.521" transform="translate(0 -324)" fill="#0070c0" fill-rule="evenodd"/>
</svg>
