<svg id="search" xmlns="http://www.w3.org/2000/svg" width="21.472" height="21.361" viewBox="0 0 21.472 21.361">
  <path id="路径_1" data-name="路径 1" d="M23.23,23.227a1.347,1.347,0,0,1,1.9,0l5.166,5.14a1.331,1.331,0,0,1,0,1.888,1.347,1.347,0,0,1-1.9,0l-5.166-5.14a1.33,1.33,0,0,1,0-1.889Z" transform="translate(-9.217 -9.285)" fill="#284b62" fill-rule="evenodd"/>
  <path id="路径_2" data-name="路径 2" d="M8.723,16.021A7.343,7.343,0,1,0,1.342,8.678,7.362,7.362,0,0,0,8.723,16.021Zm8.723-7.343A8.723,8.723,0,1,1,8.723,0a8.7,8.7,0,0,1,8.723,8.678Z" transform="translate(0)" fill="#284b62" fill-rule="evenodd"/>
</svg>
