<svg id="search" xmlns="http://www.w3.org/2000/svg" width="25.349" height="25.219" viewBox="0 0 25.349 25.219">
  <path id="路径_1" data-name="路径 1" d="M23.3,23.3a1.59,1.59,0,0,1,2.242,0l6.1,6.068a1.571,1.571,0,0,1,0,2.229,1.59,1.59,0,0,1-2.241,0l-6.1-6.068a1.571,1.571,0,0,1,0-2.231Z" transform="translate(-6.757 -6.838)" fill="#284b62" fill-rule="evenodd"/>
  <path id="路径_2" data-name="路径 2" d="M10.3,18.915a8.669,8.669,0,1,0-8.714-8.669A8.692,8.692,0,0,0,10.3,18.915Zm10.3-8.669A10.3,10.3,0,1,1,10.3,0,10.272,10.272,0,0,1,20.6,10.245Z" fill="#284b62" fill-rule="evenodd"/>
</svg>
