<svg xmlns="http://www.w3.org/2000/svg" width="219.606" height="60.977" viewBox="0 0 219.606 60.977">
  <g id="logo" transform="translate(-251.984 1460.013)">
    <path id="路径_1731" data-name="路径 1731" d="M252.308-1424.1h23.074v7.745H254.406a22.236,22.236,0,0,0,3.227,6.293c7.451,11.133,21.99,14.683,33.078,6.708,9.456-6.8,13.188-19.6,11.779-30.75H277.48v-8.068h22.913c-.425-2.467-2.124-4.9-3.5-6.938-6.555-9.724-19.668-14.2-30.227-8.16C255.051-1450.63,250.695-1436.773,252.308-1424.1Z" transform="translate(0 0)" fill="#0430c4"/>
    <g id="组_1573" data-name="组 1573" transform="translate(315.882 -1418.32)">
      <rect id="矩形_612" data-name="矩形 612" width="3.388" height="8.229" transform="translate(44.857 3.578)" fill="#0430c4"/>
      <rect id="矩形_613" data-name="矩形 613" width="3.388" height="2.259" transform="translate(35.821 0.351)" fill="#0430c4"/>
      <rect id="矩形_614" data-name="矩形 614" width="3.388" height="2.259" transform="translate(44.857 0.351)" fill="#0430c4"/>
      <path id="路径_1732" data-name="路径 1732" d="M957.8-1175.958c-.735.314-1.029,1.225-1.989,1.071-1.9-.305-1.839-3.26-.323-4,1.1-.533,1.409.627,2.293.834a7.364,7.364,0,0,0,2.871-.427c-1.328-4.514-9.481-3.483-9.681,1.291-.213,5.4,8.429,6.361,9.843,1.452C960.043-1175.893,958.549-1176.277,957.8-1175.958Z" transform="translate(-902.081 1184.635)" fill="#0430c4"/>
      <path id="路径_1733" data-name="路径 1733" d="M655.576-1196.27a2.641,2.641,0,0,0,.628-4.294c-2.407-2.092-7.3-.944-8.051,2.2l3.227.484c1.013-2.972,3.873.5.484.807l-.161,2.259c.646,0,1.349-.2,1.919.245a1.514,1.514,0,0,1-.467,2.66c-1.178.337-1.233-.969-2-1.354-.8-.375-2.294.188-3.16.225.8,3.353,5.7,4.716,8.375,2.5A3.318,3.318,0,0,0,655.576-1196.27Z" transform="translate(-647.992 1201.624)" fill="#0430c4"/>
      <path id="路径_1734" data-name="路径 1734" d="M715.962-1197.278c-.53-.1-2.346-.422-1.793-1.351a1.121,1.121,0,0,1,1.308-.367c.646.211.895.929,1.494,1.193.926.42,2.348-.056,3.347-.064a4.379,4.379,0,0,0-1.455-2.638c-2.14-1.541-7.658-1.233-8.325,1.832-.547,2.5,1.551,3.666,3.648,4.214.843.223,2.164.361,2.568,1.279.37.842-.734,1.445-1.438,1.352a2.327,2.327,0,0,1-1.775-1.843l-3.55.162c.428,5.232,10.109,5.777,10.621.484C720.883-1195.816,718.183-1196.766,715.962-1197.278Z" transform="translate(-699.988 1201.446)" fill="#0430c4"/>
      <path id="路径_1735" data-name="路径 1735" d="M1016.376-1180.641a4.329,4.329,0,0,0-2.68,6.863c1.262,1.569,3.531,1.9,5.423,1.538a4.366,4.366,0,0,0,2.529-7.018C1020.386-1180.716,1018.188-1180.968,1016.376-1180.641Zm1.613,6.271c-2.151.436-2.464-3.743-.483-4.141C1019.6-1178.934,1019.913-1174.746,1017.989-1174.37Z" transform="translate(-953.931 1184.133)" fill="#0430c4"/>
      <path id="路径_1736" data-name="路径 1736" d="M807.962-1197.278c-.53-.1-2.346-.422-1.793-1.351a1.121,1.121,0,0,1,1.308-.367c.646.211.895.929,1.494,1.193.926.42,2.348-.056,3.347-.064a4.38,4.38,0,0,0-1.455-2.638c-2.14-1.541-7.658-1.233-8.325,1.832-.547,2.5,1.551,3.666,3.648,4.214.843.223,2.164.361,2.568,1.279.37.842-.734,1.445-1.438,1.352a2.327,2.327,0,0,1-1.775-1.843l-3.55.162c.428,5.232,10.109,5.777,10.621.484C812.883-1195.816,810.183-1196.766,807.962-1197.278Z" transform="translate(-777.143 1201.446)" fill="#0430c4"/>
      <rect id="矩形_615" data-name="矩形 615" width="3.388" height="8.229" transform="translate(35.821 3.578)" fill="#0430c4"/>
      <rect id="矩形_616" data-name="矩形 616" width="3.388" height="11.456" transform="translate(40.339 0.351)" fill="#0430c4"/>
      <path id="路径_1737" data-name="路径 1737" d="M1348.833-1196.3a4.286,4.286,0,0,0-1.614.882v-4.034h-3.227v11.456h3.227c0-1.452-.276-3.261.152-4.679.165-.549.616-1.277,1.3-1.13,1.606.332.971,4.62.971,5.809h3.227C1352.866-1191.112,1353.971-1197.511,1348.833-1196.3Z" transform="translate(-1231.688 1199.798)" fill="#0430c4"/>
      <path id="路径_1738" data-name="路径 1738" d="M1288.8-1175.958c-.735.315-1.029,1.226-1.989,1.071-1.9-.305-1.839-3.26-.323-4,1.1-.533,1.408.627,2.293.834a7.365,7.365,0,0,0,2.87-.427c-1.328-4.514-9.481-3.483-9.681,1.291-.213,5.4,8.429,6.361,9.843,1.452C1291.043-1175.894,1289.549-1176.277,1288.8-1175.958Z" transform="translate(-1179.672 1184.635)" fill="#0430c4"/>
      <rect id="矩形_617" data-name="矩形 617" width="3.711" height="11.456" transform="translate(127.148 0.351)" fill="#0430c4"/>
      <path id="路径_1739" data-name="路径 1739" d="M1471.058-1179.425v-.968h-3.066v8.229h3.227c0-1.452-.276-3.261.152-4.679.166-.549.616-1.277,1.3-1.13,1.606.332.971,4.62.971,5.809h3.227c0-2.011.521-4.88-.183-6.776C1475.78-1181.361,1472.592-1180.716,1471.058-1179.425Z" transform="translate(-1335.68 1183.972)" fill="#0430c4"/>
      <path id="路径_1740" data-name="路径 1740" d="M1532.8-1175.958c-.735.315-1.029,1.226-1.989,1.071-1.9-.305-1.839-3.26-.323-4,1.1-.533,1.408.627,2.293.834a7.366,7.366,0,0,0,2.871-.427c-1.328-4.514-9.481-3.483-9.681,1.291-.213,5.4,8.428,6.361,9.843,1.452C1535.043-1175.894,1533.549-1176.277,1532.8-1175.958Z" transform="translate(-1384.302 1184.635)" fill="#0430c4"/>
      <path id="路径_1741" data-name="路径 1741" d="M1171.964-1199.447h-10.972v2.582h3.55v8.875h3.711v-8.875h3.711Z" transform="translate(-1078.216 1199.798)" fill="#0430c4"/>
      <path id="路径_1742" data-name="路径 1742" d="M1080.058-1179.425v-.968h-3.066v8.229h3.227c0-1.452-.276-3.261.152-4.679.166-.549.616-1.277,1.3-1.13,1.606.332.971,4.62.971,5.809h3.227c0-2.011.522-4.88-.183-6.776C1084.781-1181.361,1081.592-1180.716,1080.058-1179.425Z" transform="translate(-1007.77 1183.972)" fill="#0430c4"/>
      <path id="路径_1743" data-name="路径 1743" d="M1228.3-1180.326c-2.522-2.02-7.547-1.026-8.276,2.335-1.238,5.609,7.3,7.458,9.573,2.9a10.8,10.8,0,0,0-2.9-.3c-1.531.173-2.541,1.08-3.388-.829h6.454C1229.763-1177.749,1229.59-1179.282,1228.3-1180.326Zm-5,2.5a1.579,1.579,0,0,1,3.066,0Z" transform="translate(-1127.625 1184.636)" fill="#0430c4"/>
    </g>
    <path id="路径_1744" data-name="路径 1744" d="M1590.992-1148.447v3.227h3.55v-3.227Z" transform="translate(-1122.951 -261.293)" fill="#0430c4"/>
    <g id="组_1574" data-name="组 1574" transform="translate(315.263 -1451.044)">
      <path id="路径_1745" data-name="路径 1745" d="M671.027-1402.321v3.441H650.581v5.488c0,4.749-.4,11.773-2.958,16.124a16.051,16.051,0,0,0-3.469-2.019c2.332-3.981,2.5-9.868,2.5-14.1v-8.929h10.351c-.114-.427-.256-.882-.37-1.251l4.323-.853c.227.626.483,1.393.711,2.1Zm-5.716,20.389c2.1.74,4.209,1.536,5.6,2.1l-1.877,2.844c-1.792-.824-4.777-2.1-7.479-3.071l1.138-1.877h-4.664l2.048,1.877c-2.5,1.052-5.858,2.3-8.19,3.1a21.378,21.378,0,0,0-2.19-2.787c1.735-.541,4.009-1.394,5.858-2.19h-3.925v-8.247h17.83v8.247Zm-14.332-10.948h19.849v2.218H650.979Zm7.223-5.773v.739h4.322v-.739h4.152v.739h3.441v2.19h-3.441v2.36h-12.4v-2.36H651.15v-2.19h3.128v-.739Zm-2.872,11.517h3.327v-.768H655.33Zm0,2.929h3.327v-.8H655.33Zm2.872-11.517v.768h4.322v-.768Zm7.365,7.82H662.5v.768h3.071Zm0,2.9H662.5v.8h3.071Z" transform="translate(-644.154 1404.426)" fill="#0430c4"/>
      <path id="路径_1746" data-name="路径 1746" d="M919.2-1400.827a47.852,47.852,0,0,1-2.7,5.4v20.162h-3.924v-14.5a23.407,23.407,0,0,1-2.1,2.275,30.626,30.626,0,0,0-2.133-4.351,28.263,28.263,0,0,0,7.024-10.294Zm10.778,21.47c1.393,0,1.621-1.109,1.877-5.773a11.165,11.165,0,0,0,3.64,1.706c-.427,5.6-1.422,7.706-5.147,7.706H925.94c-3.9,0-4.977-1.308-4.977-5.716v-20.247h3.981v7h9.839v3.953h-9.839v9.356c0,1.763.142,2.019,1.479,2.019Z" transform="translate(-865.71 1402.505)" fill="#0430c4"/>
      <path id="路径_1747" data-name="路径 1747" d="M1181.927-1384.134a26.43,26.43,0,0,0-1.194-2.36v10.522h-4.01v-8.787a22.761,22.761,0,0,1-2.5,4.493,22.155,22.155,0,0,0-1.877-3.981,25.946,25.946,0,0,0,3.839-6.91h-3.5V-1395h4.038v-2.645c-.938.142-1.877.285-2.787.37a13.606,13.606,0,0,0-1.081-3.185,43.781,43.781,0,0,0,9.242-2.36l2.247,3.384a33.43,33.43,0,0,1-3.612,1.024V-1395h3.5v3.839h-3.5v.085c.768.654,3.015,3.1,3.555,3.7Zm14.674,1.081V-1376h-4.067v-6.313l-8.219,1.507-.654-3.953,8.873-1.593v-16.664h4.067v15.953l2.559-.455.626,3.9Zm-9.7-10.891a26.681,26.681,0,0,1,4.465,4.209l-2.844,2.645a25.8,25.8,0,0,0-4.266-4.493Zm2.417-.711a22.955,22.955,0,0,0-4.067-4.465l2.7-2.3a24.954,24.954,0,0,1,4.266,4.208Z" transform="translate(-1087.117 1403.244)" fill="#0430c4"/>
      <path id="路径_1748" data-name="路径 1748" d="M1448.288-1387.086c-.938.256-1.877.483-2.844.739v6.085c0,1.877-.313,2.872-1.393,3.5s-2.559.74-4.607.74a15.755,15.755,0,0,0-1.137-3.754c1,.029,2.161.029,2.531.029.427,0,.54-.142.54-.54v-5.062l-2.417.568-1.024-3.953c1-.171,2.161-.4,3.441-.683v-4.379h-3.071v-3.811h3.071v-5.232h4.067v5.232h2.616v3.811h-2.616v3.469l2.36-.54Zm16.181-4.294a20.94,20.94,0,0,1-5.062,9.555,20.455,20.455,0,0,0,6.171,2.474,16.858,16.858,0,0,0-2.616,3.555,21.338,21.338,0,0,1-6.853-3.3,25.951,25.951,0,0,1-7.138,3.185,15.01,15.01,0,0,0-2.218-3.725,20.941,20.941,0,0,0,6.285-2.389,23.472,23.472,0,0,1-3.668-6.171l1.308-.37h-1.82v-3.725h5.346v-2.929h-5.8V-1399h5.8v-3.839h4.095V-1399h6.142v3.782H1458.3v2.929h2.815l.683-.142Zm-11.09,2.815a16.709,16.709,0,0,0,2.844,4.18,14.659,14.659,0,0,0,3.014-4.18Z" transform="translate(-1309.856 1403.096)" fill="#0430c4"/>
    </g>
  </g>
</svg>
