<svg xmlns="http://www.w3.org/2000/svg" width="15.86" height="15.859" viewBox="0 0 15.86 15.859">
  <g id="search" transform="translate(0 0)">
    <path id="路径_1" data-name="路径 1" d="M23.127,23.126a.991.991,0,0,1,1.4,0l3.816,3.816a.991.991,0,1,1-1.4,1.4l-3.816-3.816a.991.991,0,0,1,0-1.4Z" transform="translate(-12.777 -12.776)" fill="#fff" fill-rule="evenodd"/>
    <path id="路径_2" data-name="路径 2" d="M6.443,11.895A5.452,5.452,0,1,0,.991,6.443,5.452,5.452,0,0,0,6.443,11.895Zm6.443-5.452A6.443,6.443,0,1,1,6.443,0a6.443,6.443,0,0,1,6.443,6.443Z" transform="translate(0 0)" fill="#fff" fill-rule="evenodd"/>
  </g>
</svg>
